<?xml version="1.0"?>
<svg xmlns="http://www.w3.org/2000/svg" width="26" height="26" viewBox="0 0 26 26">
    <path d="M 20.65625 0.03125 C 20.226436 1.953125e-05 19.435625 0.18875 18.21875 1.4375 C 18.21875 1.4375 12.31525 6.87075 11.40625 8.59375 C 10.15725 10.96275 8.59375 13.4605 7.71875 15.0625 C 6.0055853 18.189129 5.7561306 20.337056 7.0625 21.5625 C 7.3395 21.9265 7.26175 22.04 7.09375 23 C 6.92875 23.936 7.181 24.93 7.75 25.5 C 7.901 25.65 8.3995 26.128 8.8125 25.75 C 9.1285 25.46 9.0175 25.287 8.6875 24.75 C 8.5585 24.539 8.44725 23.94275 8.53125 23.46875 C 8.5775409 23.205778 8.7195755 22.729576 9.4375 22.5 C 9.4475538 22.499782 9.458716 22.500327 9.46875 22.5 C 10.748807 22.458243 11.863722 21.51813 12.59375 19.8125 C 13.57775 17.5195 13.084 15.69225 11.25 14.90625 C 10.99 14.79425 10.605 14.47125 11 13.90625 C 12.538 11.70225 13.668 12.2325 15.75 9.0625 L 21.03125 0.15625 C 21.03125 0.15625 20.914139 0.049988281 20.65625 0.03125 z M 25.9375 7.0625 C 25.9375 7.0625 17.38475 8.5555 17.34375 8.5625 C 16.59375 10.0315 15.3005 11.61875 14.5625 12.09375 C 14.2385 12.30275 13.8795 12.48275 13.6875 12.84375 C 17.4555 12.13075 24.71875 8.59375 24.71875 8.59375 C 25.93775 8.06275 25.9375 7.0625 25.9375 7.0625 z M 4.125 7.28125 C 1.63 7.28125 0.15625 8.47275 0.15625 10.46875 C 0.15625 13.04775 2.2625 14.06825 6.5625 13.65625 C 6.6725 13.65325 6.9965 13.5965 7.1875 13.5625 C 7.3085 13.3715 8.49625 11.41775 8.65625 11.09375 C 8.08825 11.15375 8.125 10.73475 8.125 10.46875 C 8.125 8.47375 6.617 7.28125 4.125 7.28125 z M 4.125 8.875 C 6.514 8.875 6.53125 10.07375 6.53125 10.46875 C 6.53125 10.86375 6.513 12.0625 4.125 12.0625 C 1.734 12.0625 1.75 10.86275 1.75 10.46875 C 1.75 10.07475 1.734 8.875 4.125 8.875 z M 10.6875 11.28125 C 10.789094 11.269484 10.896 11.282 11 11.3125 C 11.419 11.4365 11.65525 11.8955 11.53125 12.3125 C 11.40825 12.7295 10.9795 12.96775 10.5625 12.84375 C 10.1445 12.72075 9.90825 12.26075 10.03125 11.84375 C 10.12425 11.531 10.382719 11.316547 10.6875 11.28125 z M 9.9375 16.21875 C 10.233791 16.208701 10.48925 16.286 10.625 16.34375 C 10.986 16.49975 12.09925 16.9915 11.15625 19.1875 C 10.21325 21.3815 9.111 20.906 8.75 20.75 C 8.388 20.595 7.27675 20.1345 8.21875 17.9375 C 8.808125 16.565625 9.4436816 16.235498 9.9375 16.21875 z"/>
</svg>
