<?xml version="1.0"?>
<svg xmlns="http://www.w3.org/2000/svg" viewBox="0 0 24 24" enable-background="new 0 0 24 24">
    <path style="text-indent:0;text-align:start;line-height:normal;text-transform:none;block-progression:tb;-inkscape-font-specification:Bitstream Vera Sans" d="M 6 2 L 6 3 L 6 14 L 8 14 L 8 4 L 18 4 L 18 18.5 C 18 19.37619 17.37619 20 16.5 20 C 15.62381 20 15 19.37619 15 18.5 C 15 17.62381 15.62381 17 16.5 17 L 16.5 15 L 6.5 15 C 4.5761905 15 3 16.57619 3 18.5 C 3 20.42381 4.5761905 22 6.5 22 L 16.5 22 C 18.42381 22 20 20.42381 20 18.5 L 20 3 L 20 2 L 19 2 L 7 2 L 6 2 z M 6.5 17 L 13.375 17 C 13.1494 17.461718 13 17.954304 13 18.5 C 13 19.045696 13.1494 19.538282 13.375 20 L 6.5 20 C 5.6238095 20 5 19.37619 5 18.5 C 5 17.62381 5.6238095 17 6.5 17 z" overflow="visible" enable-background="accumulate" font-family="Bitstream Vera Sans"/>
</svg>
